<svg xmlns="http://www.w3.org/2000/svg" height="110.982" width="258.24"><g clip-path="url(#clipPath20)" transform="matrix(1.25 0 0 -1.25 -137.29 703.95)"><path d="M256.553 503.467c3.782-1.62 6.04-4.665 6.04-8.138 0-4.6-3.533-7.34-9.463-7.34-6.29 0-9.212 5.538-9.96 7.232l-.92 2.095h-11.78l-.02.015h-10.918c-2.978-4.972-8.984-9.56-15.964-9.56-12.6 0-18.887 9.848-19.694 19.57h51.5v2.127c0 4.03-.42 7.82-1.203 11.345 1.475-4.52 4.836-9.206 11.88-12.52 2.572-1.23 6.455-3.058 10.503-4.828m-53.726 30.89c10.54 0 15.705-7.272 17.2-14.675H184.95c1.832 7.418 8.33 14.676 17.877 14.676m103.345-.214v13.296h-10.948v15.72h-13.437v-15.72h-27.073c-12.504-.007-21.578-8.413-21.578-20 0-1.24.112-2.583.362-3.978-4.26 14.76-15.49 23.978-30.568 23.978-18.447 0-32.545-14.36-33.73-33.816v4.133c0 16.372-13.318 29.683-29.686 29.683-16.367 0-29.685-13.31-29.685-29.683v-42.554h13.604v42.554c0 8.862 7.212 16.08 16.08 16.08 8.866 0 16.082-7.218 16.082-16.08v-42.554H169.2v33.11c1.192-19.528 15.473-33.938 34.158-33.938 11.408 0 21.468 6.625 27.167 14.296 4.253-9.087 12.56-14.295 22.82-14.295 11.896 0 23.936 7.597 23.936 22.12 0 8.696-5.05 15.8-14.22 20.015-1.173.534-2.12.983-3.026 1.413l-.124.063c-1.024.484-2.018.95-3.244 1.508-5.992 2.69-8.846 4.663-8.846 8.59 0 3.457 3.09 6.06 6.91 6.06h27.056v-37.9c0-12.063 9.81-21.87 21.87-21.87v13.438c-4.65 0-8.432 3.785-8.432 8.433v37.9c5.376-.008 9.52 0 10.948 0M312.408 479.675h-.59v-.88h.59c.288 0 .49.165.49.466 0 .29-.227.415-.49.415m.49-3.146l-.556 1.33h-.518v-1.33h-1.042v4.076h1.626c.852 0 1.535-.467 1.535-1.384 0-.465-.19-.93-.628-1.16l.665-1.533h-1.08zm-.62 5.12c-1.837 0-3.084-1.345-3.084-3.157 0-1.826 1.234-3.163 3.084-3.163 1.827 0 3.085 1.36 3.085 3.163 0 1.812-1.245 3.157-3.085 3.157m0-7.275c-2.402 0-4.14 1.714-4.14 4.118.002 2.392 1.763 4.114 4.14 4.114s4.142-1.733 4.142-4.114c0-2.404-1.75-4.118-4.142-4.118" fill="#768693"/></g></svg>