<?xml version="1.0" encoding="utf-8"?>
<!-- Generator: Adobe Illustrator 17.0.0, SVG Export Plug-In . SVG Version: 6.00 Build 0)  -->
<!DOCTYPE svg PUBLIC "-//W3C//DTD SVG 1.1//EN" "http://www.w3.org/Graphics/SVG/1.1/DTD/svg11.dtd">
<svg version="1.1" id="Capa_1" xmlns="http://www.w3.org/2000/svg" xmlns:xlink="http://www.w3.org/1999/xlink" x="0px" y="0px"
	 width="738.4px" height="648px" viewBox="0 -658.6 738.4 648" enable-background="new 0 -658.6 738.4 648" xml:space="preserve">
<g>
	<path d="M726.3-344.4h-72.3l21.8-37.8c2.9-4.9,1.2-11.2-3.8-14c-5-2.9-11.2-1.1-14,3.8l-27.7,48h-55l56-97.1
		c2.9-4.9,1.2-11.2-3.8-14c-4.9-2.8-11.2-1.2-14,3.8l-62,107.4H448.8l-31-53.7l51.3-88.9h124c5.6,0,10.3-4.6,10.3-10.3
		c0-5.6-4.6-10.3-10.3-10.3H481l27.5-47.6l55.4,0c5.7,0,10.3-4.6,10.3-10.3c0-5.6-4.6-10.3-10.3-10.3l-43.6,0l36.2-62.7
		c2.9-4.9,1.2-11.2-3.8-14c-4.9-2.9-11.2-1.2-14,3.8l-36.2,62.7l-21.8-37.8c-2.8-4.9-9.1-6.6-14-3.8s-6.6,9.1-3.8,14l27.7,48
		l-27.5,47.6l-56-97.1c-2.8-4.9-9.1-6.6-14-3.8c-4.9,2.9-6.6,9.1-3.8,14l62,107.3L400-408.3h-62l-51.3-88.9l62-107.4
		c2.8-4.9,1.1-11.2-3.8-14c-4.9-2.8-11.2-1.1-14,3.8l-56.1,97.1l-27.5-47.6l27.7-48c2.8-4.9,1.1-11.2-3.8-14
		c-4.9-2.9-11.2-1.1-14,3.8l-21.8,37.8l-36.1-62.7c-2.9-4.9-9.1-6.6-14-3.8c-4.9,2.8-6.6,9.1-3.8,14l36.2,62.7h-43.6
		c-5.7,0-10.3,4.6-10.3,10.3c0,5.7,4.6,10.3,10.3,10.3h55.4l27.5,47.6H145c-5.7,0-10.3,4.6-10.3,10.3c0,5.7,4.6,10.3,10.3,10.3h124
		l51.3,88.9l-31,53.7H186.7l-62-107.4c-2.8-4.9-9.1-6.6-14-3.8c-4.9,2.8-6.6,9.1-3.8,14l56.1,97.1h-55l-27.7-48
		c-2.9-4.9-9.1-6.6-14-3.8c-4.9,2.9-6.6,9.1-3.8,14l21.8,37.7H12c-5.7,0-10.3,4.6-10.3,10.3c0,5.6,4.6,10.3,10.3,10.3h72.3
		l-21.8,37.8c-2.8,4.9-1.1,11.2,3.8,14c1.6,0.9,3.4,1.4,5.1,1.4c3.6,0,7-1.8,8.9-5.1l27.7-48h55l-56.1,97.1
		c-2.8,4.9-1.1,11.2,3.8,14c1.6,0.9,3.4,1.4,5.1,1.4c3.6,0,7-1.8,8.9-5.1l62-107.4h102.6l31,53.6l-51.3,88.9h-124
		c-5.7,0-10.3,4.6-10.3,10.3c0,5.6,4.6,10.3,10.3,10.3h112.1l-27.5,47.6h-55.5c-5.7,0-10.3,4.6-10.3,10.3c0,5.6,4.6,10.3,10.3,10.3
		h43.6L181.7-30c-2.8,4.9-1.1,11.2,3.8,14c1.6,0.9,3.4,1.4,5.1,1.4c3.6,0,7-1.8,8.9-5.1l36.2-62.7l21.8,37.8
		c1.9,3.3,5.4,5.1,8.9,5.1c1.7,0,3.5-0.4,5.1-1.4c4.9-2.9,6.6-9.1,3.8-14l-27.8-48l27.5-47.6L331-53.4c1.9,3.3,5.4,5.1,8.9,5.1
		c1.7,0,3.5-0.4,5.1-1.4c4.9-2.9,6.6-9.1,3.8-14l-62-107.4l51.3-88.9h62l51.3,88.9l-62,107.4c-2.8,4.9-1.1,11.2,3.8,14
		c1.6,0.9,3.4,1.4,5.1,1.4c3.6,0,7-1.8,8.9-5.1l56.1-97.1l27.5,47.6l-27.7,48c-2.8,4.9-1.1,11.2,3.8,14c1.6,0.9,3.4,1.4,5.1,1.4
		c3.6,0,7-1.9,8.9-5.1l21.8-37.7L539-19.7c1.9,3.3,5.4,5.1,8.9,5.1c1.7,0,3.5-0.4,5.1-1.4c4.9-2.9,6.5-9.1,3.8-14l-36.2-62.7h43.6
		c5.7,0,10.3-4.6,10.3-10.3c0-5.6-4.6-10.3-10.3-10.3h-55.5l-27.5-47.6l112.1,0c5.6,0,10.3-4.6,10.3-10.3s-4.6-10.3-10.3-10.3
		l-124,0l-51.3-88.9l31-53.7h102.6l62,107.4c1.9,3.3,5.3,5.1,8.9,5.1c1.7,0,3.5-0.4,5.1-1.4c4.9-2.9,6.6-9.1,3.8-14l-56.2-97.1h55.1
		l27.8,48c1.9,3.3,5.4,5.1,8.9,5.1c1.8,0,3.5-0.4,5.1-1.4c4.9-2.9,6.6-9.1,3.8-14l-21.8-37.8h72.3c5.6,0,10.3-4.6,10.3-10.3
		C736.6-339.8,731.9-344.4,726.3-344.4z M425.2-323.8L406-290.7l-5.9,10.3h-11.8H350h-11.8l-5.9-10.3l-19.1-33.1l-5.9-10.3l5.9-10.3
		l19.1-33.1l5.9-10.3H350h38.3h11.9l5.9,10.3l19.1,33.1l5.9,10.3L425.2-323.8z"/>
</g>
</svg>
